<?xml version="1.0" encoding="utf-8"?>
<!-- Generator: Adobe Illustrator 16.0.0, SVG Export Plug-In . SVG Version: 6.00 Build 0)  -->
<!DOCTYPE svg PUBLIC "-//W3C//DTD SVG 1.1//EN" "http://www.w3.org/Graphics/SVG/1.1/DTD/svg11.dtd">
<svg version="1.1" id="Layer_1" xmlns="http://www.w3.org/2000/svg" xmlns:xlink="http://www.w3.org/1999/xlink" x="0px" y="0px"
	 width="50px" height="50px" viewBox="0 0 50 50" enable-background="new 0 0 50 50" xml:space="preserve">
<g id="ZIEtor.tif_1_">
	<g>
		<g>
			<path fill-rule="evenodd" clip-rule="evenodd" fill="#FBFBF3" d="M5.538,7.04c3.002,1.36,6.014,2.705,9.008,4.085
				c9.58,4.411,19.154,8.835,28.73,13.255c0.34,0.157,0.672,0.334,1.135,0.564c-0.379,0.196-0.621,0.333-0.871,0.449
				C31.144,31.117,18.749,36.841,6.351,42.561c-0.262,0.12-0.541,0.201-0.812,0.301c0-0.064,0-0.129,0-0.194
				c0.141-0.324,0.297-0.642,0.418-0.973c1.75-4.796,3.506-9.591,5.229-14.396c0.225-0.625,0.504-0.924,1.217-0.962
				c5.756-0.311,11.512-0.661,17.268-1.007c1.287-0.077,2.574-0.186,3.861-0.279c-1.359-0.304-2.705-0.406-4.053-0.487
				c-5.723-0.344-11.447-0.691-17.172-1.009c-0.627-0.034-0.9-0.309-1.092-0.859c-0.637-1.831-1.303-3.652-1.973-5.472
				c-1.229-3.332-2.469-6.659-3.703-9.988C5.538,7.17,5.538,7.105,5.538,7.04z"/>
		</g>
	</g>
</g>
</svg>
