<?xml version="1.0" encoding="utf-8"?>
<!-- Generator: Adobe Illustrator 21.0.0, SVG Export Plug-In . SVG Version: 6.00 Build 0)  -->
<svg version="1.1" id="Layer_1" xmlns="http://www.w3.org/2000/svg" xmlns:xlink="http://www.w3.org/1999/xlink" x="0px" y="0px"
	 viewBox="0 0 220 122" style="enable-background:new 0 0 220 122;" xml:space="preserve">
<style type="text/css">
	.st0{fill:#FFFFFF;}
	.st1{fill:#FFFFFF;stroke:#5E5E60;stroke-width:6;stroke-linecap:round;stroke-linejoin:round;stroke-miterlimit:10;}
</style>
<g>
	<g>
		<g>
			<g>
				<path class="st0" d="M90.8,114.4c-0.8,0-1.5-0.3-2.1-0.8L18.1,46.7c-0.9-0.9-1.2-2.2-0.7-3.3c0.5-1.1,1.6-1.9,2.8-1.9l85,1.2
					l16.5-38c0.5-1.1,1.6-1.8,2.8-1.8c0,0,0,0,0,0c1.2,0,2.3,0.7,2.8,1.8l18.3,42.4l53.6-14.8c1.2-0.3,2.5,0.1,3.3,1.2
					c0.7,1,0.7,2.4,0,3.5l-37.5,52.4c-0.4,0.5-0.9,0.9-1.5,1.1l-71.6,23.8C91.4,114.4,91.1,114.4,90.8,114.4z M27.8,47.6L91.6,108
					l69-22.9l32-44.7l-47.9,13.2c-1.4,0.4-3-0.3-3.6-1.7l-16.6-38.4L110,46.9c-0.5,1.1-1.6,1.8-2.8,1.8L27.8,47.6z"/>
			</g>
			<g>
				<g>
					<path class="st0" d="M94.3,113.2c-0.9,0-1.9-0.4-2.4-1.3c-1-1.4-0.6-3.2,0.7-4.2l105.6-75c1.4-1,3.2-0.6,4.2,0.7
						c1,1.4,0.6,3.2-0.7,4.2L96,112.6C95.5,113,94.9,113.2,94.3,113.2z"/>
				</g>
			</g>
			<g>
				<g>
					<path class="st0" d="M149,74.6c-0.2,0-0.4,0-0.6-0.1L20.2,48c-1.6-0.3-2.7-1.9-2.3-3.5c0.3-1.6,1.9-2.7,3.5-2.3l128.2,26.5
						c1.6,0.3,2.7,1.9,2.3,3.5C151.6,73.6,150.4,74.6,149,74.6z"/>
				</g>
			</g>
			<g>
				<g>
					<path class="st0" d="M150.9,72.1c-1.2,0-2.3-0.7-2.8-1.8l-23.6-56.6l-20.4,48.4c-0.6,1.5-2.4,2.2-3.9,1.6
						c-1.5-0.6-2.2-2.4-1.6-3.9l23.2-55c0.5-1.1,1.6-1.8,2.8-1.8c0,0,0,0,0,0c1.2,0,2.3,0.7,2.8,1.8l26.4,63.2
						c0.6,1.5-0.1,3.3-1.6,3.9C151.7,72,151.3,72.1,150.9,72.1z"/>
				</g>
			</g>
			<g>
				<path class="st1" d="M184.1,56"/>
			</g>
		</g>
	</g>
</g>
</svg>
