<?xml version="1.0" encoding="utf-8"?>
<!-- Generator: Adobe Illustrator 16.0.0, SVG Export Plug-In . SVG Version: 6.00 Build 0)  -->
<!DOCTYPE svg PUBLIC "-//W3C//DTD SVG 1.1//EN" "http://www.w3.org/Graphics/SVG/1.1/DTD/svg11.dtd">
<svg version="1.1" id="Layer_1" xmlns="http://www.w3.org/2000/svg" xmlns:xlink="http://www.w3.org/1999/xlink" x="0px" y="0px"
	 width="300px" height="230.988px" viewBox="0 0 300 230.988" enable-background="new 0 0 300 230.988" xml:space="preserve">
<rect x="-484.368" y="-102.305" fill="#FBFBF3" width="467.184" height="479.45"/>
<g>
	<g>
		<polygon fill="#262828" points="137.777,172.1 212.111,147.43 253.338,89.708 		"/>
		<polygon fill="#262828" points="166.975,55.809 196.145,126.166 141.774,114.929 		"/>
		<polygon fill="#262828" points="126.151,175.18 190.18,129.324 46.662,99.839 		"/>
		<polygon fill="#262828" points="137.777,114.248 144.772,97.444 51.46,96.188 		"/>
		<polygon fill="#262828" points="191.65,103.014 199.807,122.695 250.844,86.573 		"/>
	</g>
</g>
<g display="none">
	<text transform="matrix(1 0 0 1 59.9189 164.0996)" display="inline"><tspan x="0" y="0" fill="#262828" font-family="'Raleway-Black'" font-size="41.8995" letter-spacing="47">AR</tspan><tspan x="150.498" y="0" fill="#262828" font-family="'Raleway-Black'" font-size="41.8995">K</tspan></text>
	<text transform="matrix(1 0 0 1 93.5361 201.8887)" display="inline"><tspan x="0" y="0" fill="#262828" font-family="'LibreBaskerville-Regular'" font-size="29.0344" letter-spacing="4">studi</tspan><tspan x="93.938" y="0" fill="#262828" font-family="'LibreBaskerville-Regular'" font-size="29.0344">o</tspan></text>
	<g display="inline">
		<polygon fill="#262828" points="141.121,108.125 196.573,89.72 227.328,46.66 		"/>
		<polygon fill="#262828" points="162.901,21.372 184.661,73.859 144.102,65.475 		"/>
		<polygon fill="#262828" points="132.448,110.422 180.212,76.214 73.149,54.218 		"/>
		<polygon fill="#262828" points="141.121,64.967 146.338,52.432 76.728,51.494 		"/>
		<polygon fill="#262828" points="181.31,56.586 187.394,71.268 225.468,44.321 		"/>
	</g>
</g>
<rect x="-668.869" y="-211.489" fill="#262828" width="491.976" height="659.967"/>
</svg>
