<?xml version="1.0" encoding="utf-8"?>
<!-- Generator: Adobe Illustrator 16.0.0, SVG Export Plug-In . SVG Version: 6.00 Build 0)  -->
<!DOCTYPE svg PUBLIC "-//W3C//DTD SVG 1.1//EN" "http://www.w3.org/Graphics/SVG/1.1/DTD/svg11.dtd">
<svg version="1.1" id="Layer_1" xmlns="http://www.w3.org/2000/svg" xmlns:xlink="http://www.w3.org/1999/xlink" x="0px" y="0px"
	 width="500px" height="347.161px" viewBox="0 0 500 347.161" enable-background="new 0 0 500 347.161" xml:space="preserve">
<g display="none">
	<polygon display="inline" fill="#FBFBF3" points="342.717,52.935 295.025,119.705 203.839,149.969 114.018,64.835 224.79,66.327 
		246.828,15.68 271.299,72.771 	"/>
	
		<line display="inline" fill="none" stroke="#303131" stroke-width="4.6878" stroke-miterlimit="10" x1="202.059" y1="152.769" x2="342.717" y2="52.935"/>
	
		<line display="inline" fill="none" stroke="#303131" stroke-width="4.6878" stroke-miterlimit="10" x1="277.965" y1="99.291" x2="108.233" y2="64.246"/>
	<polyline display="inline" fill="none" stroke="#303131" stroke-width="4.6878" stroke-miterlimit="10" points="217.208,85.747 
		246.828,15.68 280.336,96.184 	"/>
	<path display="inline" fill="none" stroke="#FFFFFF" stroke-width="3.4444" stroke-miterlimit="10" d="M322.598,79.455"/>
</g>
<g>
	<g>
		<polygon fill="#FBFBF3" points="225.423,274.827 374.896,225.216 457.799,109.147 		"/>
		<polygon fill="#FBFBF3" points="284.135,40.98 342.787,182.463 233.458,159.864 		"/>
		<polygon fill="#FBFBF3" points="202.046,281.02 330.795,188.81 42.202,129.519 		"/>
		<polygon fill="#FBFBF3" points="225.423,158.495 239.487,124.705 51.848,122.178 		"/>
		<polygon fill="#FBFBF3" points="333.754,135.901 350.152,175.479 452.785,102.842 		"/>
	</g>
</g>
<g>
	<text transform="matrix(1 0 0 1 -461.7832 347.1611)"><tspan x="0" y="0" fill="#FBFBF3" font-family="'Raleway-Black'" font-size="79.9016" letter-spacing="89">AR</tspan><tspan x="286.997" y="0" fill="#FBFBF3" font-family="'Raleway-Black'" font-size="79.9016">K</tspan></text>
	<text transform="matrix(1 0 0 1 -397.6763 424.2256)"><tspan x="0" y="0" fill="#FFFFFF" font-family="'LibreBaskerville-Regular'" font-size="55.3681" letter-spacing="7">studi</tspan><tspan x="179.14" y="0" fill="#FFFFFF" font-family="'LibreBaskerville-Regular'" font-size="55.3681">o</tspan></text>
	<g>
		<polygon fill="#FBFBF3" points="-307.387,215.087 -201.641,179.989 -142.992,97.875 		"/>
		<polygon fill="#FBFBF3" points="-265.852,49.65 -224.357,149.743 -301.703,133.755 		"/>
		<polygon fill="#FBFBF3" points="-323.926,219.468 -232.842,154.233 -437.009,112.287 		"/>
		<polygon fill="#FBFBF3" points="-307.387,132.786 -297.438,108.882 -430.184,107.094 		"/>
		<polygon fill="#FBFBF3" points="-230.748,116.803 -219.146,144.802 -146.539,93.415 		"/>
	</g>
</g>
</svg>
