<?xml version="1.0" encoding="utf-8"?>
<!-- Generator: Adobe Illustrator 16.0.0, SVG Export Plug-In . SVG Version: 6.00 Build 0)  -->
<!DOCTYPE svg PUBLIC "-//W3C//DTD SVG 1.1//EN" "http://www.w3.org/Graphics/SVG/1.1/DTD/svg11.dtd">
<svg version="1.1" id="Layer_1" xmlns="http://www.w3.org/2000/svg" xmlns:xlink="http://www.w3.org/1999/xlink" x="0px" y="0px"
	 width="400px" height="400px" viewBox="0 0 400 400" enable-background="new 0 0 400 400" xml:space="preserve">
<image display="none" overflow="visible" enable-background="new    " width="400" height="400" xlink:href="arkanimation_motionblur_v3.gif"  transform="matrix(1 0 0 1 1 1)">
</image>
<g id="VXN8nH.tif" display="none">
	
		<image display="inline" overflow="visible" enable-background="new    " width="400" height="400" id="Layer_0" xlink:href="6273FB76985DB791.png"  transform="matrix(1 0 0 1 -4.882812e-04 0)">
	</image>
</g>
<g enable-background="new    ">
	<path fill="#FBFAF2" d="M130.015,297.303h7.101l9.813,28.322h-7.898l-1.715-5.545h-7.54l-1.675,5.545h-7.938L130.015,297.303z
		 M136.078,314.895l-2.513-8.776l-2.633,8.776H136.078z"/>
	<path fill="#FBFAF2" d="M193.28,325.625v-28.322h13.005c1.382,0,2.658,0.286,3.829,0.857c1.17,0.572,2.174,1.316,3.012,2.234
		c0.838,0.917,1.496,1.968,1.975,3.151s0.718,2.373,0.718,3.57c0,1.648-0.359,3.185-1.076,4.607
		c-0.719,1.423-1.716,2.586-2.992,3.49l5.983,10.411h-8.776l-4.986-8.696h-2.912v8.696H193.28z M201.059,310.147h4.907
		c0.479,0,0.923-0.266,1.336-0.798c0.412-0.531,0.618-1.276,0.618-2.233c0-0.984-0.238-1.735-0.718-2.254
		c-0.479-0.519-0.958-0.778-1.437-0.778h-4.707V310.147z"/>
</g>
<g enable-background="new    ">
	<path fill="#FBFAF2" d="M265.957,325.625v-28.322h7.779v10.771l8.615-10.771h8.776l-10.292,12.686l11.01,15.637h-8.936
		l-7.02-10.411l-2.154,2.233v8.178H265.957z"/>
</g>
<g enable-background="new    ">
	<path fill="#FFFFFF" d="M154.76,364.381h-0.611v-4.774h0.694c0.722,2.638,1.999,3.914,3.941,3.914c1.471,0,2.415-0.722,2.415-2.192
		c0-1.083-0.5-1.416-3.22-3.109c-2.498-1.582-3.747-2.47-3.747-4.552c0-2.525,1.804-4.274,4.135-4.274c1,0,2.165,0.333,2.97,0.86
		l0.555-0.583h0.527v3.997h-0.721c-0.805-2.248-1.693-3.137-3.109-3.137c-1.249,0-2.082,0.694-2.082,1.888
		c0,1.222,0.833,1.805,2.72,2.97c3.192,1.999,4.441,2.942,4.441,5.052c0,2.609-1.887,4.219-4.635,4.219
		c-1.443,0-2.72-0.444-3.719-1.249L154.76,364.381z"/>
	<path fill="#FFFFFF" d="M169.078,351.419v-1.027c1.971-1.165,2.998-2.192,3.581-3.774h0.805v3.497h3.719v1.305h-3.719v8.438
		c0,2.609,0.444,3.442,1.915,3.442c0.916,0,1.527-0.361,2.137-1.277l0.694,0.527c-0.527,1.36-1.832,2.109-3.719,2.109
		c-2.442,0-3.747-1.221-3.747-3.386v-9.854H169.078z"/>
	<path fill="#FFFFFF" d="M194.305,354.111c0-3.025-0.167-3.247-2.304-3.47v-0.972h5.023v8.521c0,2.109,0.056,3.414,0.167,4.08
		c0.167,0.943,0.555,1.11,2.249,1.11v0.972l-4.58,0.333l-0.306-3.331h-0.111c-1.416,2.276-3.303,3.303-5.301,3.303
		c-1.555,0-3.164-0.638-3.914-1.638c-0.611-0.805-0.888-2.22-0.888-4.496v-4.413c0-3.025-0.167-3.275-2.304-3.47v-0.972h5.023v7.578
		c0,3.996,0.916,5.745,2.97,5.745c1.582,0,2.886-1.055,3.802-3.192c0.361-0.86,0.472-1.388,0.472-2.97V354.111z"/>
	<path fill="#FFFFFF" d="M216.477,362.05h-0.111c-1.332,1.859-2.748,2.608-4.773,2.608c-4.191,0-7.217-3.191-7.217-7.66
		c0-4.386,3.053-7.605,7.217-7.605c1.748,0,3.108,0.583,4.385,1.859v-2.831c0-2.081-0.055-3.58-0.166-4.08
		c-0.194-0.805-0.943-1.109-2.859-1.109v-0.833l5.69-1.055v16.015c0,2.554,0.028,4.219,0.194,4.913
		c0.223,0.888,0.527,1.138,2.248,1.138v0.944l-4.607,0.305V362.05z M215.922,355.915c0-1.942-0.167-2.747-0.75-3.497
		c-0.832-1.11-2.303-1.693-3.58-1.693c-2.637,0-4.08,2.388-4.08,6.135c0,3.913,1.416,6.467,4.08,6.467
		c1.305,0,2.887-0.639,3.608-1.749c0.527-0.805,0.722-1.831,0.722-3.83V355.915z"/>
	<path fill="#FFFFFF" d="M231.099,359.968c0,2.858,0.389,3.358,2.581,3.441v0.972h-7.965v-0.972c2.248-0.11,2.664-0.638,2.664-3.247
		v-3.553c0-2.138-0.056-3.581-0.194-4.08c-0.167-0.86-0.694-1.11-2.526-1.11v-0.972l5.44-1.055V359.968z M229.628,342.037
		c0.972,0,1.721,0.75,1.721,1.722c0,0.971-0.749,1.721-1.721,1.721s-1.722-0.75-1.722-1.721
		C227.906,342.787,228.656,342.037,229.628,342.037z"/>
</g>
<g enable-background="new    ">
	<path fill="#FFFFFF" d="M258.975,356.915c0,4.496-3.58,7.743-7.799,7.743c-4.164,0-7.689-3.22-7.689-7.743
		c0-4.386,3.525-7.522,7.689-7.522C255.395,349.393,258.975,352.557,258.975,356.915z M246.623,356.942
		c0,3.83,1.777,6.301,4.553,6.301c2.83,0,4.662-2.498,4.662-6.301c0-3.691-1.859-6.218-4.662-6.218
		C248.428,350.725,246.623,353.223,246.623,356.942z"/>
</g>
<g>
	<polygon fill="#FBFAF2" points="184.48,259.339 252.777,236.674 290.652,183.642 	"/>
	<polygon fill="#FBFAF2" points="211.307,152.496 238.104,217.139 188.151,206.812 	"/>
	<polygon fill="#FBFAF2" points="173.798,262.171 232.623,220.039 100.766,192.949 	"/>
	<polygon fill="#FBFAF2" points="184.48,206.188 190.905,190.749 105.174,189.596 	"/>
	<polygon fill="#FBFAF2" points="233.979,195.865 241.471,213.947 288.361,180.761 	"/>
</g>
</svg>
