<?xml version="1.0" encoding="utf-8"?>
<!-- Generator: Adobe Illustrator 16.0.0, SVG Export Plug-In . SVG Version: 6.00 Build 0)  -->
<!DOCTYPE svg PUBLIC "-//W3C//DTD SVG 1.1//EN" "http://www.w3.org/Graphics/SVG/1.1/DTD/svg11.dtd">
<svg version="1.1" id="Layer_1" xmlns="http://www.w3.org/2000/svg" xmlns:xlink="http://www.w3.org/1999/xlink" x="0px" y="0px"
	 width="41.089px" height="41.089px" viewBox="0 0 41.089 41.089" enable-background="new 0 0 41.089 41.089" xml:space="preserve">
<path fill="#FBFBF3" d="M-57.622,17.273c6.883,0.002,12.789,4.664,14.258,11.193c0.992,4.422,0.082,8.464-2.611,12.119
	c-1.057,1.437-2.039,2.929-3.057,4.394c-2.277,3.283-4.557,6.567-6.838,9.854c-0.174,0.254-0.352,0.504-0.525,0.758
	c-0.645,0.938-1.477,0.941-2.123,0.01c-1.523-2.197-3.049-4.395-4.574-6.592c-1.867-2.691-3.73-5.385-5.607-8.07
	c-0.705-1.008-1.412-2.012-1.922-3.141c-0.66-1.469-1.082-2.998-1.24-4.604c-0.273-2.795,0.191-5.463,1.48-7.955
	c2.029-3.924,5.209-6.441,9.492-7.551C-59.761,17.396-58.606,17.289-57.622,17.273z M-57.448,25.003
	c-3.455-0.006-6.289,2.791-6.297,6.217c-0.008,3.521,2.791,6.351,6.285,6.354c3.461,0,6.279-2.816,6.285-6.283
	C-51.169,27.826-53.979,25.009-57.448,25.003z"/>
<g id="ZIEtor.tif_5_">
	<g>
		<g>
			<path fill="#FBFBF3" d="M39.981,38.26c-1.234-3.33-2.476-6.656-3.703-9.989c-0.67-1.821-1.336-3.641-1.974-5.473
				c-0.191-0.55-0.465-0.824-1.092-0.859c-5.725-0.316-11.449-0.664-17.172-1.008c-1.348-0.082-2.693-0.183-4.053-0.488
				c1.287-0.093,2.574-0.201,3.861-0.279c5.756-0.346,11.512-0.695,17.268-1.006c0.713-0.038,0.992-0.338,1.217-0.963
				c1.723-4.804,3.479-9.599,5.229-14.396c0.121-0.33,0.276-0.649,0.418-0.974c0-0.063,0-0.129,0-0.192
				c-0.271,0.1-0.55,0.18-0.812,0.301c-12.401,5.72-24.795,11.444-37.19,17.167c-0.25,0.117-0.492,0.254-0.871,0.449
				c0.463,0.23,0.795,0.408,1.135,0.563c9.576,4.42,19.15,8.845,28.729,13.257c2.994,1.379,6.007,2.725,9.009,4.084
				C39.981,38.389,39.981,38.325,39.981,38.26z"/>
		</g>
	</g>
</g>
</svg>
