<?xml version="1.0" encoding="utf-8"?>
<!-- Generator: Adobe Illustrator 16.0.0, SVG Export Plug-In . SVG Version: 6.00 Build 0)  -->
<!DOCTYPE svg PUBLIC "-//W3C//DTD SVG 1.1//EN" "http://www.w3.org/Graphics/SVG/1.1/DTD/svg11.dtd">
<svg version="1.1" id="Layer_1" xmlns="http://www.w3.org/2000/svg" xmlns:xlink="http://www.w3.org/1999/xlink" x="0px" y="0px"
	 width="100px" height="100px" viewBox="0 0 100 100" enable-background="new 0 0 100 100" xml:space="preserve">
<g>
	<polygon fill="#FBFBF3" points="-91.795,61.848 -45.286,46.411 -19.491,10.294 	"/>
	<polygon fill="#FBFBF3" points="-73.527,-10.916 -55.277,33.107 -89.296,26.076 	"/>
	<polygon fill="#FBFBF3" points="-99.069,63.773 -59.009,35.083 -148.806,16.633 	"/>
	<polygon fill="#FBFBF3" points="-91.795,25.649 -87.42,15.135 -145.804,14.349 	"/>
	<polygon fill="#FBFBF3" points="-58.089,18.62 -52.986,30.934 -21.052,8.333 	"/>
</g>
<g>
	<g>
		<g>
			<g>
				<g>
					<path fill="#FBFBF3" d="M50.37,60.1c-0.947,0-1.717-0.77-1.717-1.716v-22.21c0-0.947,0.771-1.717,1.717-1.717
						c0.946,0,1.716,0.77,1.716,1.717v22.21C52.086,59.33,51.316,60.1,50.37,60.1z"/>
				</g>
			</g>
			<g>
				<g>
					<path fill="#FBFBF3" d="M61.445,88.081c-0.286,0-0.567-0.069-0.834-0.207l-3.749-1.924c-0.542-0.277-1.102-0.563-1.625-0.923
						c-0.884-0.603-1.639-1.297-2.244-2.061c-1.546-1.95-2.641-4.283-3.257-6.936c-0.448-1.927-0.746-4.029-0.938-6.614
						c-0.067-0.925-0.137-2.019-0.145-3.128c-0.005-0.759,0.525-1.456,1.262-1.658c0.143-0.04,0.297-0.061,0.458-0.061
						c0.498,0,0.961,0.199,1.241,0.534c0.664,0.802,1.347,1.589,2.031,2.371c1.018,1.156,1.871,2.097,2.686,2.961
						c0.214,0.226,0.43,0.449,0.646,0.673c0.85,0.879,1.729,1.789,2.45,2.843c0.748,1.094,1.352,2.334,1.795,3.685
						c0.315,0.963,0.528,1.954,0.734,2.913l1.161,5.402c0.115,0.537-0.008,1.081-0.34,1.492
						C62.451,87.849,61.965,88.081,61.445,88.081z M56.921,82.029c0.273,0.191,0.559,0.366,0.853,0.527
						c0.413,0.227,0.829,0.448,1.248,0.666l-0.43-2.002c-0.131-0.614-0.262-1.23-0.43-1.838c-0.101-0.368-0.213-0.733-0.343-1.094
						c-0.068-0.187-0.14-0.375-0.217-0.562l0.415-0.297l-0.458,0.201c-0.036-0.083-0.074-0.166-0.114-0.248
						c-0.294-0.608-0.602-1.143-0.943-1.635c-0.096-0.137-0.195-0.274-0.298-0.41l-0.221-0.272c-0.235-0.28-0.479-0.552-0.734-0.811
						c-0.929-0.939-1.886-1.954-2.847-3.015c0.015,0.133,0.113,0.938,0.113,0.938c0.042,0.298,0.077,0.547,0.118,0.798
						c0.195,1.231,0.409,2.234,0.673,3.159c0.154,0.547,0.302,0.994,0.465,1.409l-0.413,0.312l0.456-0.204
						c0.074,0.166,0.145,0.324,0.219,0.48c0.148,0.309,0.3,0.617,0.466,0.917c0.325,0.597,0.639,1.094,0.958,1.522l0.077,0.101
						l-0.054,0.071l-0.326,0.255l0.146-0.095l0.168-0.145l-0.053,0.069l0.159-0.104l-0.202,0.16l-0.148,0.197l0.385-0.32
						l0.187,0.221c0.14,0.158,0.288,0.315,0.442,0.466c0.147,0.141,0.305,0.282,0.468,0.416l-0.23,0.459l0.298-0.401L56.921,82.029z
						"/>
				</g>
			</g>
			<g>
				<g>
					<path fill="#FBFBF3" d="M38.518,87.722c-0.453,0-0.862-0.17-1.183-0.491c-0.422-0.424-0.589-1.04-0.448-1.65l1.247-5.294
						c0.358-1.535,0.811-3.31,1.658-4.94c0.688-1.322,1.631-2.585,2.726-3.652c1.204-1.178,2.118-2.104,2.964-3.005
						c1.286-1.368,2.329-2.524,3.282-3.639c0.3-0.35,0.719-0.541,1.179-0.541c0.477,0,0.949,0.202,1.296,0.555
						c0.32,0.326,0.492,0.745,0.484,1.18c-0.013,0.565-0.042,1.125-0.077,1.687c-0.143,2.232-0.38,4.229-0.728,6.103
						c-0.508,2.746-1.274,4.91-2.411,6.811c-1.214,2.026-2.73,3.52-4.507,4.438c-1.042,0.541-2.107,1.044-3.171,1.547
						c-0.485,0.229-0.969,0.457-1.451,0.689C39.101,87.651,38.803,87.722,38.518,87.722z M41.457,81.162l-0.413,1.753l0.174-0.082
						c0.519-0.244,1.056-0.497,1.546-0.785c0.158-0.093,0.31-0.189,0.458-0.291c0.077-0.051,0.147-0.1,0.213-0.149
						c0.369-0.295,0.68-0.589,0.958-0.898c0.095-0.103,0.185-0.206,0.271-0.312c0,0,0.16-0.202,0.184-0.23
						c0.132-0.179,0.258-0.361,0.379-0.547c0.357-0.549,0.697-1.153,1.01-1.798c0,0,0.161-0.335,0.211-0.451
						c0.116-0.283,0.198-0.5,0.271-0.718c0.169-0.491,0.315-0.986,0.443-1.485c0.25-0.977,0.458-2.017,0.632-3.18l0.062-0.442
						l0.512-0.049l-0.496-0.063l0.039-0.317c-0.436,0.463-0.875,0.922-1.321,1.377c-0.5,0.509-1.005,1.011-1.52,1.504
						c-0.279,0.271-0.554,0.55-0.811,0.845c-0.114,0.13-0.225,0.26-0.332,0.391l-0.154,0.201c-0.388,0.53-0.721,1.065-0.993,1.597
						c-0.114,0.222-0.222,0.446-0.321,0.673l-0.11,0.274c-0.048,0.122-0.092,0.24-0.133,0.359c-0.315,0.901-0.541,1.861-0.739,2.709
						C41.474,81.085,41.466,81.123,41.457,81.162z"/>
				</g>
			</g>
			<g>
				<g>
					<path fill="#FBFBF3" d="M74.96,78.657c-1.465,0-2.953-0.11-4.424-0.326c-2.637-0.388-4.539-1.037-6.168-2.104
						c-1.473-0.965-2.857-2.241-4.114-3.792c-1.175-1.45-2.189-2.965-3.111-4.385l-0.245-0.376c-0.34-0.521-0.68-1.042-1.033-1.555
						c-0.205-0.297-0.413-0.594-0.632-0.881l-0.145-0.19c-0.124-0.151-0.2-0.244-0.279-0.334c-0.107-0.123-0.221-0.229-0.338-0.335
						c-0.125-0.111-0.254-0.226-0.385-0.334l-0.326-0.263c-1.107-0.836-2.33-1.569-3.629-2.177
						c-0.078-0.036-0.155-0.072-0.234-0.108l-0.289,0.236c-1.033,0.845-2.1,1.717-3.103,2.622c-0.938,0.847-1.683,1.579-2.347,2.305
						c-0.373,0.409-0.735,0.83-1.083,1.265l-0.284,0.36l-0.446,0.596c-0.29,0.392-0.575,0.79-0.86,1.189
						c-0.774,1.082-1.575,2.201-2.49,3.212c-1.335,1.475-2.869,2.588-4.559,3.309c-2.142,0.914-4.643,1.438-7.648,1.6
						c-0.57,0.031-1.146,0.047-1.726,0.047c-3.968,0-7.627-0.759-10.582-2.196c-0.603-0.294-1.143-0.657-1.646-1.005
						c-0.862-0.595-1.746-1.149-2.42-1.566c-1.039-0.639-2.086-1.265-3.146-1.868c-0.593-0.336-0.917-1.005-0.827-1.704
						s0.576-1.264,1.237-1.438c3.746-0.987,7-2.061,9.948-3.279c0.317-0.132,0.83-0.354,1.293-0.569
						c0.423-0.194,0.844-0.394,1.26-0.599c0.778-0.386,1.547-0.789,2.312-1.207c0.663-0.364,1.322-0.736,1.981-1.107
						c0.895-0.505,1.789-1.01,2.692-1.494l0.708-0.383c1.651-0.894,3.358-1.818,5.18-2.374c1.903-0.58,4.072-0.954,6.445-1.109
						c0.583-0.038,1.166-0.057,1.747-0.057c1.266,0,2.523,0.091,3.754,0.272c-0.63-0.66-1.209-1.382-1.733-2.156
						c-2.203-3.258-3.51-7.434-3.996-12.766c-0.381-4.18,0.062-8.115,1.319-11.693c0.861-2.457,2.06-4.807,3.218-7.079
						c0.282-0.553,0.564-1.106,0.841-1.66l3.899-7.803c0.269-0.538,0.844-0.872,1.5-0.872s1.23,0.335,1.498,0.874
						c1.714,3.471,3.434,6.935,5.162,10.395l0.215,0.427c1.252,2.49,2.645,5.413,3.314,8.556c0.429,2.007,0.634,4.051,0.61,6.075
						c-0.031,2.664-0.338,5.192-0.91,7.516c-0.562,2.289-1.517,4.579-2.837,6.805c-0.808,1.364-1.777,2.681-3.05,4.145
						c-0.092,0.106-0.179,0.207-0.262,0.304c0.222,0.049,0.443,0.095,0.666,0.137c0.429,0.082,1.015,0.178,1.29,0.211
						c0.556,0.065,1.151,0.128,1.731,0.138l0.13,0.001c0.715,0,1.453-0.091,2.166-0.18l0.44-0.053c1.388-0.167,2.452-0.24,3.45-0.24
						c1.592,0,2.977,0.199,4.232,0.608c2.008,0.657,4.125,1.626,6.473,2.962c0.742,0.421,1.47,0.867,2.198,1.313
						c0.741,0.454,1.482,0.909,2.24,1.337c1.646,0.929,3.214,1.646,5.24,2.399c2.711,1.011,5.495,1.894,8.273,2.626
						c0.661,0.174,1.147,0.737,1.239,1.437c0.092,0.698-0.231,1.368-0.823,1.706c-1.343,0.762-2.671,1.558-3.949,2.367
						c-0.357,0.227-0.708,0.469-1.058,0.711c-0.449,0.31-0.897,0.619-1.36,0.9c-0.648,0.395-1.401,0.746-2.368,1.104
						C81.244,78.135,78.201,78.657,74.96,78.657z M67.58,74.087c0.043,0.012,0.091,0.031,0.164,0.061l0.098,0.038
						c0.408,0.156,0.812,0.283,1.199,0.377c1.235,0.296,2.424,0.485,3.633,0.58c0.733,0.055,1.459,0.083,2.155,0.083
						c0.481,0,0.964-0.014,1.445-0.041c0.581-0.033,1.158-0.081,1.732-0.151c0,0,0.213-0.026,0.238-0.028l0.323-0.048
						c0.246-0.039,0.489-0.079,0.733-0.124c0.989-0.185,1.875-0.401,2.706-0.663c0.391-0.125,0.781-0.257,1.166-0.407l0.234-0.096
						c0.167-0.072,0.31-0.136,0.451-0.204c0.522-0.255,0.994-0.571,1.513-0.929c0.663-0.457,1.37-0.916,2.207-1.435
						c-2.242-0.691-4.29-1.424-6.232-2.227c-1.929-0.799-3.676-1.675-5.341-2.677l-1.088-0.661
						c-1.125-0.688-2.289-1.398-3.473-2.015c-0.984-0.514-1.979-0.981-2.879-1.354c-1.136-0.471-2.348-0.921-3.517-1.034
						c-0.426-0.042-0.849-0.059-1.27-0.059c-1.111,0-2.194,0.117-3.341,0.242c-0.672,0.072-1.345,0.146-2.023,0.194
						c-0.311,0.021-0.623,0.032-0.938,0.032c-0.356,0-0.723-0.014-1.1-0.04c0.5,0.413,0.879,0.789,1.21,1.198
						c0.886,1.108,1.664,2.303,2.417,3.457l0.292,0.447c0.457,0.702,0.921,1.402,1.406,2.086c0.138,0.193,0.696,0.949,0.696,0.949
						c0.244,0.314,0.492,0.62,0.747,0.918c0.62,0.718,1.205,1.313,1.79,1.82c0.152,0.132,0.307,0.263,0.464,0.389
						c0.039,0.027,0.412,0.301,0.412,0.301c0.326,0.225,0.67,0.443,1.024,0.638c0.206,0.114,0.418,0.223,0.633,0.322l0.112,0.051
						L67.58,74.087z M17.257,73.497c0.738,0.264,1.51,0.489,2.292,0.67c0.859,0.198,1.869,0.378,2.574,0.457
						c1.038,0.117,2.053,0.177,3.018,0.177h0.13c2.757-0.015,5.068-0.361,7.066-1.062c0.15-0.053,0.299-0.105,0.445-0.163
						c0.112-0.054,0.192-0.084,0.251-0.103c0.163-0.072,0.325-0.148,0.484-0.229c0.413-0.211,0.764-0.415,1.074-0.624
						c0.111-0.075,0.223-0.15,0.331-0.229c0.068-0.054,0.124-0.099,0.178-0.133c0.114-0.092,0.227-0.187,0.338-0.283
						c0.287-0.253,0.566-0.519,0.829-0.798c0.291-0.309,0.568-0.628,0.835-0.956c0,0,0.248-0.31,0.276-0.344
						c0.113-0.147,0.225-0.295,0.334-0.443c0.287-0.387,0.566-0.774,0.845-1.163c0.248-0.345,0.496-0.69,0.748-1.032
						c1.424-1.933,2.868-3.563,4.415-4.986c0.778-0.716,1.588-1.406,2.345-2.035c-0.574-0.135-1.141-0.244-1.694-0.327
						c-0.3-0.045-0.365-0.055-0.706-0.086c-0.262-0.027-0.514-0.047-0.771-0.062c-0.465-0.026-0.93-0.042-1.394-0.042l-0.19,0.001
						c-1.134,0.01-2.255,0.082-3.332,0.215c-0.361,0.043-0.929,0.128-1.446,0.223c-0.466,0.088-0.933,0.184-1.395,0.296
						c-0.45,0.109-0.894,0.229-1.333,0.372c-0.181,0.059-0.357,0.118-0.533,0.185l-0.252,0.097c-2.007,0.897-3.948,1.964-5.767,2.98
						l-1.15,0.647c-1.095,0.619-2.228,1.259-3.369,1.846c-1.87,0.961-3.815,1.819-5.782,2.553c-1.49,0.555-3.012,1.076-4.538,1.553
						c0.59,0.367,1.177,0.739,1.753,1.126c0.16,0.107,0.317,0.219,0.475,0.329c0.36,0.253,0.699,0.492,1.062,0.689
						c0.257,0.138,0.523,0.27,0.791,0.389l0.275,0.114C16.94,73.381,17.099,73.44,17.257,73.497z M49.23,55.704
						c0.387,0.265,0.776,0.504,1.162,0.712c0.248-0.344,0.543-0.719,0.876-1.112c0.172-0.203,0.351-0.401,0.529-0.6
						c0.243-0.271,0.487-0.541,0.712-0.826l0.347-0.469c0.131-0.182,0.257-0.359,0.378-0.542c0.271-0.4,0.53-0.805,0.779-1.216
						c1.295-2.167,2.124-4.126,2.607-6.166c0.541-2.272,0.802-4.527,0.796-6.896c-0.002-1.065-0.056-2.034-0.165-2.962
						c0,0-0.03-0.245-0.034-0.293l-0.036-0.248c-0.033-0.22-0.067-0.431-0.105-0.641c-0.072-0.405-0.153-0.808-0.248-1.209
						c-0.194-0.813-0.418-1.59-0.664-2.309c-0.127-0.37-0.262-0.738-0.403-1.103l-0.245-0.602l-0.062-0.141
						c-0.494-1.138-1.061-2.263-1.607-3.352l-0.118-0.234c-1.235-2.471-2.464-4.942-3.688-7.415l-3.194,6.382
						c-0.486,0.966-0.972,1.932-1.447,2.903c-0.302,0.615-0.594,1.235-0.867,1.864l-0.145,0.343
						c-0.066,0.162-0.131,0.323-0.192,0.486c-0.131,0.34-0.258,0.678-0.372,1.02c-0.279,0.823-0.496,1.578-0.664,2.31
						c-0.104,0.438-0.192,0.875-0.269,1.316c-0.038,0.21-0.071,0.422-0.102,0.634c-0.006,0.044-0.059,0.443-0.059,0.443
						c-0.226,2.02-0.217,4.146,0.028,6.314c0.272,2.425,0.791,4.734,1.498,6.676c0.096,0.263,0.194,0.521,0.298,0.78l0.19,0.438
						c0.179,0.395,0.368,0.783,0.574,1.162c0.421,0.774,0.851,1.447,1.312,2.055l-0.302,0.426l0.385-0.319l0.17,0.208
						c0.114,0.135,0.23,0.269,0.347,0.398c0.221,0.243,0.453,0.483,0.695,0.712c0.248,0.235,0.503,0.463,0.77,0.677l0.09,0.071
						l-0.269,0.425l0.344-0.367C48.987,55.532,49.108,55.619,49.23,55.704z"/>
				</g>
			</g>
			<g>
				<g>
					<path fill="#FBFBF3" d="M23.121,60.626c-0.311,0-0.609-0.088-0.861-0.253c-2.314-1.518-4.305-3.461-5.917-5.777
						c-1.161-1.668-2.167-3.619-3.077-5.965c-0.5-1.291-0.933-2.622-1.35-3.91l-0.388-1.189L8.086,33.103
						c-0.162-0.487-0.07-1.022,0.251-1.466c0.335-0.464,0.854-0.741,1.39-0.741c0.167,0,0.332,0.027,0.49,0.081l9.03,3.039
						c1.232,0.413,2.465,0.826,3.696,1.246c2.062,0.702,3.679,1.367,5.087,2.093c1.963,1.01,3.822,2.296,5.527,3.822
						c1.922,1.723,3.691,3.792,5.407,6.323c0.306,0.287,0.483,0.594,0.63,0.866c0.306,0.551,0.556,1.123,0.785,1.662
						c0.459,1.077,0.919,2.236,1.447,3.649c0.148,0.396,0.115,0.836-0.092,1.241c-0.228,0.445-0.636,0.786-1.093,0.912
						c-0.153,0.042-0.308,0.062-0.46,0.062c-0.716,0-1.359-0.479-1.637-1.219c-0.232-0.618-0.467-1.234-0.71-1.85l-0.428-1.058
						l0.274-0.141l-0.282,0.12l-0.067-0.157c-0.226-0.53-0.424-0.971-0.652-1.399c-0.041-0.078-0.082-0.154-0.125-0.228
						c-0.118-0.106-0.223-0.229-0.314-0.365c-0.31-0.465-0.629-0.927-0.959-1.38c-0.158-0.216-0.617-0.825-0.617-0.825
						c-0.06-0.071-0.135-0.167-0.209-0.26c-0.632-0.783-1.242-1.476-1.859-2.113c-0.628-0.646-1.232-1.215-1.847-1.74
						c-0.154-0.13-0.313-0.264-0.471-0.393l-0.388-0.309c-0.248-0.188-0.505-0.376-0.766-0.558c-0.816-0.57-1.667-1.089-2.531-1.544
						c-0.403-0.212-0.812-0.416-1.228-0.606l-0.96-0.418c-1.281-0.518-2.625-0.965-3.925-1.398l-8.042-2.706l2.317,7.021
						l0.389,1.196c0.417,1.289,0.848,2.621,1.34,3.901c0.088,0.234,0.18,0.466,0.274,0.696l0.178,0.421
						c0.204,0.464,0.419,0.928,0.648,1.383c0.508,1.007,1.061,1.941,1.643,2.778c0.162,0.236,0.328,0.464,0.497,0.688l0.076,0.098
						c0.128,0.161,0.215,0.268,0.303,0.37c0.386,0.465,0.785,0.903,1.192,1.311c0.449,0.446,0.908,0.861,1.365,1.232l0.317,0.254
						l0.281,0.207c0.256,0.186,0.514,0.364,0.777,0.535c0.812,0.533,1.066,1.536,0.594,2.336
						C24.326,60.291,23.734,60.626,23.121,60.626L23.121,60.626z"/>
				</g>
			</g>
			<g>
				<g>
					<path fill="#FBFBF3" d="M77.252,59.762c-0.443,0-0.864-0.176-1.184-0.495c-0.331-0.332-0.518-0.822-0.5-1.312
						c0.017-0.456,0.203-0.86,0.525-1.141c1.22-1.06,2.316-2.194,3.263-3.372l0.271-0.347l0.2-0.269
						c0.18-0.246,0.355-0.49,0.524-0.74c0.338-0.497,0.659-1.005,0.961-1.523c0.539-0.926,1.035-1.911,1.476-2.928l0.939,0.349
						l-0.464-0.186l-0.462-0.193l0.191-0.463c0.086-0.212,0.17-0.429,0.253-0.647c0.164-0.43,0.321-0.861,0.471-1.295
						c0.247-0.718,0.483-1.439,0.72-2.161l2.525-7.654l-5.25,1.768l-1.284,0.428c-1.283,0.425-2.61,0.864-3.887,1.357
						c-0.178,0.068-0.772,0.31-0.772,0.31c-0.354,0.15-0.699,0.307-1.04,0.47c-0.75,0.36-1.48,0.756-2.172,1.177
						c-0.789,0.483-1.569,1.018-2.315,1.589l-0.433,0.344c-0.204,0.164-0.402,0.329-0.597,0.496
						c-0.438,0.373-0.866,0.754-1.284,1.145c-0.915,0.858-1.834,1.8-2.733,2.801c-0.501,0.553-0.987,1.117-1.465,1.688
						c-0.142,0.168-0.554,0.67-0.554,0.67l-0.381-0.147l0.318,0.227l-0.015,0.028c-0.4,0.671-0.793,1.404-1.164,2.175
						c-0.146,0.299-0.284,0.595-0.416,0.896l-0.096,0.218l-0.509-0.081l0.464,0.187l-0.15,0.372c-0.278,0.711-0.5,1.371-0.677,2.012
						c-0.204,0.742-0.888,1.261-1.663,1.261c-0.151,0-0.303-0.021-0.449-0.062c-0.436-0.118-0.802-0.404-1.03-0.806
						c-0.229-0.402-0.289-0.865-0.168-1.305c0.523-1.896,1.343-3.833,2.507-5.923c0.138-0.249,0.277-0.498,0.427-0.74
						c0.237-0.395,0.548-0.748,0.848-1.089l0.281-0.325c0.999-1.191,1.95-2.245,2.907-3.219c1.794-1.826,3.55-3.319,5.369-4.566
						c1.428-0.979,2.95-1.818,4.525-2.493c1.49-0.639,2.997-1.158,4.672-1.722l10.406-3.506c0.159-0.053,0.323-0.08,0.489-0.08
						c0.535,0,1.055,0.276,1.39,0.739c0.321,0.444,0.413,0.979,0.252,1.467l-2.481,7.521l-0.734,2.253l-0.047,0.064
						c-0.523,0.719-0.835,1.651-0.877,2.625L87.17,45.68c0,0-0.264,0.784-0.326,0.959c-0.848,2.375-1.773,4.369-2.828,6.098
						c-1.49,2.444-3.355,4.649-5.545,6.553C78.123,59.594,77.689,59.762,77.252,59.762L77.252,59.762z"/>
				</g>
			</g>
		</g>
	</g>
</g>
</svg>
