<?xml version="1.0" encoding="utf-8"?>
<!-- Generator: Adobe Illustrator 16.0.0, SVG Export Plug-In . SVG Version: 6.00 Build 0)  -->
<!DOCTYPE svg PUBLIC "-//W3C//DTD SVG 1.1//EN" "http://www.w3.org/Graphics/SVG/1.1/DTD/svg11.dtd">
<svg version="1.1" id="Layer_1" xmlns="http://www.w3.org/2000/svg" xmlns:xlink="http://www.w3.org/1999/xlink" x="0px" y="0px"
	 width="320px" height="127.315px" viewBox="0 0 320 127.315" enable-background="new 0 0 320 127.315" xml:space="preserve">
<g>
	<text transform="matrix(1 0 0 1 22.2363 111.728)"><tspan x="0" y="0" fill="#FBFBF3" font-family="'Raleway-Black'" font-size="24.705" letter-spacing="5">PLA</tspan><tspan x="62.996" y="0" fill="#FBFBF3" font-family="'Raleway-Black'" font-size="24.705">Y</tspan></text>
	<text transform="matrix(1 0 0 1 216.3125 111.728)"><tspan x="0" y="0" fill="#FBFBF3" font-family="'Raleway-Black'" font-size="24.705" letter-spacing="5">NEX</tspan><tspan x="66.282" y="0" fill="#FBFBF3" font-family="'Raleway-Black'" font-size="24.705">T</tspan></text>
	<line fill="none" stroke="#FFFFFF" stroke-miterlimit="10" x1="157.337" y1="9.805" x2="157.337" y2="111.729"/>
	<g id="ZIEtor.tif_5_">
		<g>
			<g>
				<path fill-rule="evenodd" clip-rule="evenodd" fill="#FBFBF3" d="M237.603,33.766c3.002,1.359,6.014,2.705,9.008,4.084
					c9.58,4.412,19.154,8.836,28.73,13.256c0.34,0.156,0.672,0.334,1.135,0.564c-0.379,0.195-0.621,0.332-0.871,0.449
					c-12.396,5.723-24.791,11.447-37.189,17.166c-0.262,0.121-0.541,0.201-0.812,0.301c0-0.064,0-0.129,0-0.193
					c0.141-0.324,0.297-0.643,0.418-0.973c1.75-4.797,3.506-9.592,5.229-14.396c0.225-0.625,0.504-0.924,1.217-0.963
					c5.756-0.311,11.512-0.66,17.268-1.006c1.287-0.078,2.574-0.186,3.861-0.279c-1.359-0.305-2.705-0.406-4.053-0.488
					c-5.723-0.344-11.447-0.691-17.172-1.008c-0.627-0.035-0.9-0.309-1.092-0.859c-0.637-1.832-1.303-3.652-1.973-5.473
					c-1.229-3.332-2.469-6.658-3.703-9.988C237.603,33.895,237.603,33.831,237.603,33.766z"/>
			</g>
		</g>
	</g>
	<path fill-rule="evenodd" clip-rule="evenodd" fill="#FBFBF3" d="M60.427,32.51c6.883,0.002,12.789,4.664,14.258,11.193
		c0.992,4.422,0.082,8.465-2.611,12.121c-1.057,1.436-2.039,2.928-3.057,4.393c-2.277,3.283-4.557,6.568-6.838,9.854
		c-0.174,0.254-0.352,0.504-0.525,0.758c-0.645,0.939-1.477,0.941-2.123,0.01c-1.523-2.197-3.049-4.395-4.574-6.592
		c-1.867-2.691-3.73-5.385-5.607-8.07c-0.705-1.008-1.412-2.012-1.922-3.141c-0.66-1.469-1.082-2.998-1.24-4.604
		c-0.273-2.795,0.191-5.463,1.48-7.955c2.029-3.924,5.209-6.441,9.492-7.551C58.288,32.633,59.442,32.526,60.427,32.51z
		 M60.601,40.241c-3.455-0.006-6.289,2.791-6.297,6.217c-0.008,3.521,2.791,6.352,6.285,6.354c3.461,0,6.279-2.816,6.285-6.283
		C66.88,43.063,64.069,40.247,60.601,40.241z"/>
</g>
</svg>
