<?xml version="1.0" encoding="utf-8"?>
<!-- Generator: Adobe Illustrator 16.0.0, SVG Export Plug-In . SVG Version: 6.00 Build 0)  -->
<!DOCTYPE svg PUBLIC "-//W3C//DTD SVG 1.1//EN" "http://www.w3.org/Graphics/SVG/1.1/DTD/svg11.dtd">
<svg version="1.1" id="Layer_1" xmlns="http://www.w3.org/2000/svg" xmlns:xlink="http://www.w3.org/1999/xlink" x="0px" y="0px"
	 width="100px" height="100px" viewBox="0 0 100 100" enable-background="new 0 0 100 100" xml:space="preserve">
<g>
	<polygon fill="#FBFBF3" points="-91.795,61.848 -45.286,46.411 -19.491,10.294 	"/>
	<polygon fill="#FBFBF3" points="-73.527,-10.916 -55.277,33.107 -89.296,26.076 	"/>
	<polygon fill="#FBFBF3" points="-99.069,63.773 -59.009,35.083 -148.806,16.633 	"/>
	<polygon fill="#FBFBF3" points="-91.795,25.649 -87.42,15.135 -145.804,14.349 	"/>
	<polygon fill="#FBFBF3" points="-58.089,18.62 -52.986,30.934 -21.052,8.333 	"/>
</g>
<g>
	<g>
		<g>
			<path fill="#FBFBF3" d="M-53.691,80.316c0-1.561,0-3.119,0-4.682c0-3.148,0-6.295,0-9.443c0-2.436,0-4.871,0-7.307
				c0-0.258,0-0.518,0-0.777c0-0.664-0.554-1.217-1.216-1.217c-0.664,0-1.217,0.553-1.217,1.217c0,1.561,0,3.121,0,4.682
				c0,3.148,0,6.297,0,9.445c0,2.434,0,4.869,0,7.305c0,0.26,0,0.52,0,0.777c0,0.664,0.553,1.217,1.217,1.217
				C-54.245,81.533-53.691,80.98-53.691,80.316L-53.691,80.316z"/>
		</g>
		<g>
			<path fill="#FBFBF3" d="M-46.144,103.297c0.382,1.781,0.764,3.561,1.146,5.34c0.596-0.459,1.19-0.916,1.787-1.373
				c-1.512-0.777-3.047-1.518-4.534-2.336c-0.31-0.17-0.611-0.354-0.9-0.557c-0.076-0.053-0.15-0.107-0.225-0.164
				c-0.163-0.123,0.258,0.201,0.095,0.072c-0.038-0.029-0.075-0.061-0.112-0.092c-0.174-0.141-0.34-0.293-0.502-0.447
				c-0.162-0.158-0.318-0.324-0.47-0.494c-0.08-0.092-0.158-0.186-0.235-0.279c-0.042-0.049-0.08-0.098-0.119-0.148
				c0.247,0.314,0.042,0.055-0.009-0.014c-0.372-0.5-0.697-1.033-0.996-1.58c-0.17-0.309-0.326-0.625-0.478-0.943
				c-0.076-0.16-0.148-0.322-0.22-0.484c-0.092-0.207,0.12,0.291,0.033,0.08c-0.031-0.072-0.059-0.145-0.088-0.217
				c-0.188-0.477-0.342-0.965-0.481-1.455c-0.301-1.055-0.514-2.133-0.686-3.215c-0.042-0.262-0.08-0.523-0.117-0.783
				c-0.013-0.088-0.046-0.336,0.009,0.064c-0.009-0.064-0.017-0.129-0.025-0.193c-0.02-0.148-0.037-0.299-0.055-0.447
				c-0.062-0.508-0.111-1.018-0.157-1.527c-0.075-0.834-0.13-1.67-0.167-2.506c-0.021-0.459-0.039-0.92-0.042-1.379
				c-0.693,0.287-1.384,0.574-2.078,0.861c1.042,1.254,2.118,2.482,3.208,3.693c0.941,1.043,1.903,2.066,2.89,3.064
				c0.263,0.268,0.516,0.549,0.757,0.836c0.059,0.068,0.114,0.139,0.172,0.209c0.036,0.045,0.222,0.285,0.026,0.031
				c0.121,0.158,0.237,0.32,0.352,0.482c0.373,0.539,0.697,1.109,0.981,1.701c0.044,0.088,0.084,0.178,0.124,0.266
				c0.02,0.045,0.04,0.088,0.059,0.133c0.105,0.24-0.111-0.268-0.012-0.027c0.08,0.193,0.153,0.389,0.225,0.584
				c0.134,0.373,0.25,0.75,0.354,1.131C-46.44,101.881-46.295,102.59-46.144,103.297c0.14,0.648,0.886,1.018,1.497,0.85
				c0.665-0.184,0.988-0.848,0.85-1.496c-0.211-0.984-0.42-1.967-0.734-2.924c-0.412-1.256-0.985-2.465-1.733-3.559
				c-0.876-1.279-1.987-2.334-3.046-3.455c-0.92-0.975-1.814-1.969-2.698-2.975c-0.688-0.785-1.373-1.576-2.039-2.379
				c-0.272-0.326-0.796-0.42-1.183-0.312c-0.521,0.143-0.898,0.633-0.894,1.172c0.007,1.033,0.068,2.064,0.143,3.094
				c0.163,2.193,0.428,4.395,0.926,6.539c0.567,2.441,1.6,4.766,3.162,6.738c0.604,0.762,1.331,1.41,2.134,1.959
				c0.561,0.383,1.171,0.684,1.774,0.994c1.183,0.605,2.364,1.213,3.547,1.82c0.973,0.5,2.017-0.309,1.788-1.373
				c-0.381-1.781-0.764-3.561-1.146-5.34c-0.14-0.648-0.886-1.018-1.496-0.85C-45.96,101.984-46.281,102.65-46.144,103.297z"/>
		</g>
		<g>
			<path fill="#FBFBF3" d="M-66.658,102.334c-0.414,1.764-0.829,3.527-1.246,5.293c-0.099,0.428-0.001,0.867,0.314,1.184
				c0.41,0.41,0.976,0.43,1.473,0.189c1.536-0.74,3.096-1.445,4.61-2.23c1.848-0.955,3.246-2.479,4.307-4.25
				c1.228-2.053,1.916-4.307,2.349-6.645c0.369-1.994,0.59-4.02,0.719-6.043c0.035-0.555,0.064-1.109,0.076-1.664
				c0.019-1.01-1.376-1.678-2.079-0.859c-1.066,1.246-2.174,2.461-3.298,3.656c-0.969,1.031-1.968,2.031-2.979,3.02
				c-1.05,1.023-1.954,2.223-2.631,3.525C-65.834,99.035-66.269,100.672-66.658,102.334c-0.15,0.645,0.193,1.316,0.848,1.496
				c0.623,0.17,1.347-0.203,1.499-0.85c0.226-0.967,0.451-1.932,0.779-2.871c0.043-0.125,0.09-0.25,0.139-0.375
				c0.034-0.09,0.217-0.535,0.057-0.154c0.12-0.285,0.253-0.566,0.396-0.844c0.297-0.58,0.646-1.133,1.031-1.66
				c0.036-0.049,0.213-0.281,0.014-0.023c0.053-0.068,0.106-0.135,0.159-0.201c0.111-0.137,0.226-0.271,0.343-0.404
				c0.266-0.307,0.55-0.596,0.841-0.877c0.511-0.492,1.013-0.988,1.509-1.494c0.929-0.947,1.834-1.916,2.725-2.896
				c0.645-0.709,1.284-1.424,1.906-2.15c-0.691-0.287-1.384-0.574-2.075-0.861c-0.021,1.029-0.095,2.059-0.184,3.082
				c-0.042,0.48-0.092,0.961-0.146,1.439c-0.029,0.248-0.059,0.494-0.091,0.74c-0.012,0.088-0.045,0.33,0.011-0.072
				c-0.01,0.064-0.018,0.129-0.028,0.191c-0.021,0.148-0.041,0.299-0.063,0.447c-0.163,1.086-0.369,2.166-0.642,3.23
				c-0.132,0.512-0.282,1.018-0.454,1.518c-0.077,0.229-0.162,0.453-0.252,0.678c-0.032,0.082-0.122,0.295,0.032-0.074
				c-0.021,0.053-0.046,0.105-0.068,0.158c-0.069,0.158-0.145,0.312-0.219,0.467c-0.309,0.637-0.653,1.258-1.04,1.852
				c-0.157,0.242-0.323,0.477-0.496,0.705c0.245-0.326-0.038,0.043-0.099,0.117c-0.093,0.113-0.189,0.223-0.287,0.33
				c-0.307,0.34-0.643,0.656-1.001,0.943c-0.072,0.059-0.239,0.184,0.09-0.068c-0.039,0.029-0.078,0.059-0.117,0.088
				c-0.074,0.055-0.152,0.109-0.231,0.162c-0.158,0.109-0.32,0.211-0.488,0.309c-0.664,0.391-1.378,0.703-2.072,1.037
				c-1.002,0.484-2.006,0.969-3.008,1.453c0.595,0.457,1.191,0.916,1.788,1.373c0.413-1.764,0.829-3.527,1.244-5.293
				c0.151-0.645-0.192-1.314-0.852-1.496C-65.782,101.314-66.506,101.688-66.658,102.334z"/>
		</g>
		<g>
			<path fill="#FBFBF3" d="M-51.104,47.203c0.599,1.193,1.204,2.383,1.735,3.606c0.036,0.079,0.07,0.159,0.104,0.24
				c-0.128-0.303-0.01-0.023,0.013,0.033c0.068,0.164,0.135,0.33,0.2,0.496c0.145,0.371,0.282,0.746,0.41,1.121
				c0.266,0.775,0.489,1.562,0.679,2.357c0.096,0.41,0.179,0.822,0.253,1.234c0.039,0.215,0.074,0.432,0.107,0.646
				c0.018,0.109,0.031,0.219,0.047,0.33c-0.039-0.275,0.022,0.189,0.027,0.236c0.117,1.002,0.166,2.01,0.168,3.02
				c0.006,2.398-0.258,4.697-0.809,7.012c-0.542,2.283-1.463,4.297-2.667,6.309c-0.253,0.418-0.516,0.83-0.79,1.234
				c-0.125,0.188-0.255,0.371-0.387,0.555c-0.063,0.088-0.127,0.174-0.19,0.26c-0.029,0.041-0.299,0.395-0.12,0.162
				c-0.405,0.525-0.875,0.998-1.304,1.506c-0.359,0.424-0.704,0.863-1.024,1.318c-0.152,0.215,0.21-0.244-0.037,0.039
				c-0.097,0.113-0.199,0.219-0.305,0.322c-0.505,0.506-1.062,0.961-1.613,1.416c-1.552,1.283-3.13,2.535-4.612,3.898
				c-1.625,1.494-3.044,3.141-4.351,4.916c-0.536,0.727-1.054,1.469-1.593,2.195c-0.122,0.166-0.247,0.33-0.373,0.494
				c0.17-0.223-0.038,0.047-0.061,0.076c-0.063,0.078-0.127,0.158-0.191,0.236c-0.274,0.338-0.56,0.666-0.858,0.982
				c-0.273,0.291-0.564,0.568-0.864,0.832c-0.154,0.135-0.311,0.264-0.47,0.389c0.22-0.174-0.055,0.035-0.083,0.057
				c-0.113,0.082-0.228,0.16-0.344,0.238c-0.36,0.242-0.74,0.457-1.126,0.654c-0.205,0.105-0.415,0.201-0.625,0.293
				c0.221-0.098-0.145,0.055-0.153,0.059c-0.153,0.061-0.308,0.115-0.464,0.17c-2.319,0.812-4.789,1.076-7.229,1.09
				c-1.072,0.004-2.145-0.061-3.207-0.18c-0.719-0.082-1.742-0.262-2.63-0.467c-0.795-0.184-1.581-0.412-2.35-0.686
				c-0.176-0.064-0.352-0.131-0.524-0.197c-0.082-0.033-0.165-0.066-0.247-0.102c0.304,0.125,0.034,0.014-0.024-0.012
				c-0.28-0.123-0.557-0.26-0.826-0.406c-0.556-0.301-1.056-0.691-1.579-1.043c-0.747-0.502-1.512-0.979-2.279-1.449
				c-0.946-0.58-1.9-1.146-2.866-1.695c-0.096,0.742-0.193,1.482-0.289,2.225c2.812-0.742,5.598-1.627,8.323-2.643
				c1.958-0.729,3.869-1.574,5.728-2.529c1.525-0.783,3.008-1.648,4.504-2.484c1.894-1.059,3.813-2.109,5.794-2.996
				c0.271-0.121-0.254,0.102,0.032-0.014c0.086-0.033,0.172-0.066,0.259-0.098c0.184-0.07,0.369-0.133,0.557-0.193
				c0.452-0.146,0.907-0.27,1.369-0.383c0.471-0.115,0.946-0.211,1.423-0.301c0.528-0.098,1.109-0.184,1.476-0.227
				c1.123-0.139,2.255-0.209,3.388-0.219c0.538-0.006,1.079,0.01,1.617,0.041c0.264,0.016,0.524,0.037,0.788,0.062
				c0.395,0.037,0.436,0.045,0.734,0.09c1.124,0.168,2.235,0.432,3.321,0.766c0.472,0.145,0.938,0.311,1.399,0.486
				c0.11,0.043,0.221,0.086,0.33,0.131c0.015,0.006,0.369,0.154,0.136,0.055c0.239,0.102,0.477,0.209,0.712,0.318
				c1.318,0.617,2.578,1.369,3.738,2.246c0.19,0.145-0.236-0.184-0.053-0.041c0.045,0.035,0.091,0.07,0.135,0.107
				c0.082,0.064,0.162,0.131,0.243,0.197c0.135,0.111,0.269,0.229,0.398,0.346c0.133,0.119,0.261,0.24,0.378,0.375
				c0.102,0.115,0.198,0.234,0.296,0.354c0.05,0.061,0.098,0.123,0.146,0.186c-0.21-0.268-0.033-0.041,0.007,0.012
				c0.223,0.295,0.435,0.598,0.645,0.9c0.441,0.641,0.861,1.293,1.286,1.943c0.968,1.49,1.961,2.961,3.08,4.342
				c1.148,1.416,2.472,2.688,4.001,3.689c1.805,1.184,3.853,1.717,5.966,2.027c4.376,0.645,9.053,0.357,13.22-1.199
				c0.785-0.291,1.567-0.627,2.282-1.062c0.822-0.5,1.597-1.09,2.41-1.607c1.303-0.824,2.628-1.617,3.969-2.379
				c0.911-0.52,0.723-1.957-0.294-2.225c-2.811-0.74-5.597-1.625-8.322-2.641c-1.859-0.691-3.504-1.414-5.312-2.432
				c-1.501-0.848-2.941-1.801-4.439-2.652c-2.018-1.148-4.174-2.199-6.381-2.92c-2.415-0.789-4.987-0.645-7.469-0.348
				c-0.929,0.111-1.863,0.25-2.803,0.234c-0.595-0.008-1.191-0.07-1.783-0.141c-0.283-0.033-0.884-0.131-1.324-0.215
				c-0.878-0.168-1.752-0.379-2.598-0.676c-0.238-0.084-0.475-0.176-0.707-0.273c0.396,0.166-0.042-0.02-0.132-0.061
				c-0.145-0.064-0.286-0.135-0.429-0.205c-0.538-0.268-1.055-0.578-1.551-0.918c-0.127-0.088-0.252-0.178-0.376-0.27
				c-0.055-0.039-0.272-0.209-0.001,0.002c-0.062-0.049-0.125-0.098-0.187-0.148c-0.277-0.223-0.543-0.459-0.8-0.703
				c-0.251-0.238-0.491-0.486-0.724-0.742c-0.119-0.133-0.238-0.27-0.354-0.408c-0.06-0.068-0.116-0.141-0.175-0.213
				c-0.039-0.047-0.077-0.096-0.114-0.145c0.094,0.123,0.1,0.131,0.018,0.023C-59.554,74.781-60,74.066-60.4,73.33
				c-0.212-0.389-0.406-0.789-0.589-1.193c-0.048-0.104-0.094-0.209-0.14-0.316c0.097,0.227-0.056-0.131-0.06-0.143
				c-0.106-0.264-0.206-0.527-0.304-0.795c-0.793-2.178-1.275-4.568-1.525-6.791c-0.24-2.133-0.266-4.293-0.027-6.428
				c0.013-0.113,0.027-0.227,0.042-0.338c-0.035,0.275,0.014-0.09,0.018-0.119c0.031-0.217,0.066-0.434,0.104-0.648
				c0.078-0.451,0.169-0.898,0.274-1.342c0.183-0.797,0.415-1.584,0.677-2.357c0.117-0.35,0.246-0.695,0.378-1.037
				c0.063-0.168,0.13-0.334,0.198-0.5c0.033-0.082,0.066-0.162,0.102-0.244c-0.133,0.318,0.021-0.049,0.047-0.11
				c0.276-0.636,0.571-1.263,0.876-1.885c0.738-1.506,1.5-3,2.249-4.501c1.301-2.6,2.601-5.2,3.902-7.802c-0.702,0-1.402,0-2.102,0
				C-54.561,40.258-52.837,43.733-51.104,47.203c0.297,0.593,1.122,0.755,1.665,0.437c0.599-0.351,0.732-1.071,0.437-1.665
				c-1.734-3.469-3.458-6.943-5.177-10.422c-0.395-0.797-1.707-0.791-2.102,0c-1.3,2.602-2.601,5.202-3.899,7.803
				c-1.424,2.848-2.979,5.669-4.035,8.68c-1.291,3.676-1.646,7.615-1.293,11.482c0.396,4.348,1.435,8.869,3.912,12.531
				c1.583,2.344,3.765,4.275,6.376,5.387c0.966,0.41,1.936,0.695,2.952,0.945c1.724,0.422,3.6,0.689,5.371,0.564
				c2.252-0.16,4.446-0.598,6.717-0.377c1.227,0.119,2.483,0.582,3.66,1.07c0.948,0.391,1.972,0.879,2.918,1.371
				c1.574,0.82,3.068,1.777,4.587,2.691c1.694,1.02,3.448,1.887,5.275,2.643c3.24,1.34,6.623,2.408,10.012,3.301
				c-0.097-0.74-0.192-1.482-0.289-2.223c-1.066,0.605-2.119,1.234-3.164,1.879c-0.825,0.508-1.643,1.029-2.441,1.578
				c-0.514,0.355-1.016,0.693-1.579,0.967c-0.147,0.072-0.296,0.139-0.443,0.203c-0.271,0.119,0.253-0.104-0.028,0.012
				c-0.083,0.035-0.167,0.068-0.25,0.1c-0.395,0.156-0.796,0.291-1.198,0.418c-0.906,0.287-1.833,0.504-2.766,0.678
				c-0.248,0.047-0.495,0.088-0.744,0.127c-0.127,0.02-0.255,0.037-0.382,0.057c0.223-0.033-0.204,0.025-0.197,0.023
				c-0.586,0.072-1.175,0.121-1.766,0.154c-1.221,0.07-2.447,0.049-3.668-0.045c-1.252-0.096-2.47-0.293-3.711-0.59
				c-0.428-0.104-0.849-0.24-1.261-0.396c-0.029-0.01-0.362-0.146-0.11-0.039c-0.099-0.041-0.195-0.088-0.293-0.131
				c-0.226-0.104-0.447-0.219-0.665-0.338c-0.369-0.203-0.727-0.43-1.074-0.67c-0.086-0.061-0.171-0.123-0.255-0.184
				c-0.028-0.02-0.304-0.232-0.09-0.064c-0.193-0.15-0.382-0.309-0.567-0.469c-0.662-0.574-1.269-1.209-1.841-1.873
				c-0.273-0.318-0.537-0.645-0.796-0.977c0.167,0.217-0.044-0.059-0.064-0.086c-0.062-0.084-0.123-0.168-0.187-0.252
				c-0.144-0.193-0.285-0.391-0.426-0.588c-0.489-0.689-0.956-1.395-1.417-2.102c-0.859-1.312-1.698-2.637-2.679-3.863
				c-0.392-0.486-0.828-0.881-1.315-1.271c-1.108-0.889-2.296-1.662-3.555-2.318c-3.953-2.057-8.367-2.879-12.797-2.59
				c-2.131,0.139-4.287,0.465-6.332,1.088c-2.031,0.619-3.933,1.719-5.798,2.719c-1.569,0.842-3.108,1.742-4.67,2.6
				c-0.771,0.422-1.546,0.828-2.331,1.217c-0.42,0.207-0.845,0.408-1.27,0.604c-0.47,0.219-0.991,0.445-1.313,0.578
				c-3.24,1.34-6.622,2.408-10.012,3.301c-1.015,0.268-1.204,1.705-0.29,2.223c1.065,0.607,2.118,1.236,3.162,1.879
				c0.824,0.51,1.644,1.029,2.441,1.58c0.515,0.355,1.017,0.691,1.58,0.967c3.671,1.785,8.028,2.318,12.062,2.1
				c2.535-0.139,5.133-0.559,7.479-1.561c1.685-0.719,3.157-1.828,4.385-3.184c1.226-1.355,2.235-2.898,3.32-4.365
				c0.138-0.186,0.277-0.371,0.417-0.557c0.234-0.309-0.143,0.18,0.1-0.129c0.073-0.094,0.148-0.189,0.223-0.283
				c0.354-0.443,0.724-0.873,1.105-1.291c0.752-0.822,1.555-1.592,2.381-2.338c1.462-1.32,3.014-2.533,4.527-3.795
				c0.515-0.428,1.031-0.863,1.491-1.35c0.225-0.236,0.421-0.498,0.607-0.764c0.238-0.342,0.521-0.672,0.88-1.088
				c1.116-1.283,2.127-2.602,2.997-4.07c1.227-2.072,2.206-4.33,2.781-6.67c0.591-2.4,0.866-4.934,0.896-7.402
				c0.023-2-0.182-4.01-0.6-5.965c-0.635-2.979-1.913-5.733-3.273-8.439c-0.067-0.134-0.134-0.267-0.201-0.401
				c-0.297-0.592-1.121-0.754-1.665-0.436C-51.266,45.89-51.4,46.61-51.104,47.203z"/>
		</g>
		<g>
			<path fill="#FBFBF3" d="M-81.513,79.791c-0.271-0.176-0.536-0.359-0.797-0.549c-0.129-0.092-0.255-0.188-0.381-0.283
				c0.275,0.209,0.054,0.041,0-0.002c-0.082-0.064-0.161-0.129-0.241-0.195c-0.489-0.396-0.955-0.82-1.402-1.266
				c-0.428-0.426-0.833-0.873-1.219-1.338c-0.092-0.107-0.182-0.219-0.27-0.328c-0.044-0.055-0.087-0.109-0.13-0.166
				c0.224,0.287,0.065,0.086,0.019,0.025c-0.18-0.238-0.356-0.48-0.526-0.727c-0.628-0.904-1.183-1.857-1.679-2.84
				c-0.232-0.463-0.451-0.934-0.66-1.41c-0.04-0.092-0.216-0.504-0.044-0.098c-0.047-0.109-0.091-0.221-0.137-0.33
				c-0.097-0.236-0.19-0.471-0.279-0.707c-0.647-1.684-1.174-3.41-1.737-5.119c-0.758-2.301-1.518-4.602-2.277-6.9
				c-0.365-1.107-0.73-2.215-1.097-3.322c-0.499,0.498-0.997,0.998-1.497,1.496c3.471,1.17,6.939,2.338,10.408,3.506
				c1.601,0.537,3.212,1.051,4.778,1.684c0.095,0.039,0.192,0.08,0.289,0.119c0.201,0.084-0.297-0.125-0.097-0.041
				c0.049,0.021,0.099,0.043,0.146,0.064c0.214,0.092,0.426,0.188,0.64,0.283c0.424,0.195,0.841,0.402,1.253,0.619
				c0.894,0.471,1.756,0.998,2.584,1.576c0.305,0.211,0.604,0.432,0.898,0.658c-0.312-0.24-0.046-0.035,0.019,0.016
				c0.089,0.07,0.179,0.143,0.267,0.215c0.161,0.131,0.322,0.266,0.48,0.4c0.656,0.559,1.28,1.154,1.882,1.773
				c0.664,0.686,1.292,1.408,1.893,2.152c0.071,0.09,0.143,0.182,0.217,0.271c0.035,0.047,0.072,0.094,0.107,0.139
				c-0.197-0.25-0.01-0.01,0.026,0.035c0.164,0.217,0.326,0.434,0.486,0.654c0.335,0.459,0.658,0.926,0.972,1.398
				c0.449,0.674,1.305,0.789,1.911,0.246c-0.323,0.289-0.759,0.438-1.161,0.312c0.084,0.025-0.383-0.193-0.262-0.107
				c-0.176-0.125-0.306-0.262-0.196-0.146c0.139,0.148-0.107-0.143-0.127-0.168c0.027,0.037,0.053,0.074,0.077,0.111
				c0.081,0.123,0.153,0.256,0.222,0.387c0.276,0.518,0.509,1.057,0.738,1.596c-0.175-0.41-0.027-0.064,0.011,0.027
				c0.047,0.115,0.096,0.232,0.144,0.348c0.097,0.238,0.191,0.477,0.286,0.715c0.244,0.617,0.48,1.236,0.713,1.857
				s0.813,1.037,1.496,0.85c0.596-0.164,1.081-0.875,0.849-1.496c-0.456-1.221-0.929-2.432-1.439-3.629
				c-0.234-0.549-0.475-1.098-0.764-1.619c-0.137-0.252-0.303-0.541-0.518-0.729c-0.532-0.471-1.241-0.52-1.788-0.029
				c0.637,0.082,1.272,0.164,1.91,0.246c-1.586-2.381-3.402-4.629-5.536-6.543c-1.642-1.469-3.462-2.74-5.422-3.75
				c-1.61-0.828-3.308-1.48-5.02-2.064c-2.023-0.689-4.052-1.361-6.077-2.045c-2.216-0.746-4.432-1.492-6.648-2.238
				c-0.861-0.291-1.779,0.639-1.496,1.496c1.148,3.477,2.296,6.951,3.442,10.428c0.56,1.697,1.083,3.408,1.73,5.076
				c0.797,2.055,1.759,4.047,3.021,5.859c1.557,2.238,3.499,4.15,5.78,5.645c0.555,0.365,1.343,0.115,1.665-0.436
				C-80.728,80.861-80.959,80.154-81.513,79.791L-81.513,79.791z"/>
		</g>
		<g>
			<path fill="#FBFBF3" d="M-27.135,80.846c2.13-1.852,3.977-4.025,5.446-6.436c1.152-1.887,2.042-3.926,2.784-6.004
				c0.704-1.973,1.327-3.975,1.984-5.963c0.678-2.059,1.358-4.115,2.036-6.174c0.149-0.449,0.298-0.898,0.446-1.348
				c0.282-0.857-0.635-1.785-1.496-1.496c-3.47,1.17-6.939,2.338-10.408,3.506c-1.562,0.527-3.116,1.057-4.633,1.707
				c-1.557,0.668-3.042,1.488-4.441,2.447c-1.914,1.312-3.669,2.85-5.295,4.504c-1.004,1.023-1.96,2.094-2.881,3.191
				c-0.365,0.434-0.794,0.869-1.086,1.355c-0.145,0.236-0.28,0.477-0.416,0.721c-1.02,1.832-1.902,3.787-2.461,5.812
				c-0.176,0.641,0.211,1.322,0.85,1.496c0.639,0.176,1.321-0.211,1.497-0.85c0.193-0.701,0.43-1.389,0.695-2.066
				c0.062-0.158,0.126-0.314,0.19-0.471c-0.129,0.312-0.019,0.047,0.008-0.014c0.031-0.074,0.065-0.148,0.099-0.225
				c0.134-0.307,0.275-0.609,0.423-0.912c0.364-0.754,0.758-1.498,1.188-2.217c0.023-0.039,0.046-0.078,0.07-0.117
				c-0.23,0.371-0.076,0.105-0.005,0.018c0.061-0.076,0.121-0.15,0.184-0.225c0.14-0.172,0.282-0.344,0.424-0.514
				c0.482-0.576,0.974-1.145,1.477-1.701c0.882-0.982,1.802-1.93,2.764-2.832c0.424-0.398,0.858-0.783,1.3-1.16
				c0.199-0.17,0.401-0.338,0.605-0.502c0.099-0.082,0.198-0.16,0.298-0.24c0.05-0.039,0.1-0.078,0.149-0.115
				c0.166-0.131-0.255,0.193-0.001,0c0.758-0.58,1.546-1.121,2.36-1.619c0.718-0.438,1.457-0.838,2.214-1.201
				c0.351-0.168,0.705-0.328,1.062-0.48c0.088-0.037,0.273-0.117-0.124,0.051c0.044-0.018,0.085-0.035,0.126-0.053
				c0.084-0.035,0.168-0.068,0.25-0.102c0.178-0.072,0.357-0.143,0.536-0.213c1.708-0.658,3.457-1.207,5.191-1.791
				c2.164-0.729,4.33-1.459,6.496-2.188c0.647-0.219,1.294-0.438,1.942-0.656c-0.499-0.498-0.997-0.996-1.497-1.496
				c-1.147,3.477-2.295,6.953-3.441,10.428c-0.285,0.867-0.565,1.734-0.862,2.596c-0.152,0.439-0.311,0.875-0.476,1.309
				c-0.084,0.221-0.17,0.441-0.258,0.66c-0.046,0.111-0.092,0.225-0.138,0.336c-0.033,0.078-0.126,0.297,0.028-0.064
				c-0.032,0.076-0.065,0.154-0.099,0.229c-0.442,1.023-0.943,2.02-1.502,2.982c-0.308,0.529-0.635,1.045-0.979,1.551
				c-0.173,0.256-0.352,0.506-0.533,0.754c-0.093,0.127-0.188,0.252-0.282,0.377c-0.171,0.223,0.168-0.217-0.004,0.006
				c-0.067,0.084-0.133,0.168-0.201,0.252c-0.999,1.244-2.119,2.389-3.324,3.436c-0.501,0.436-0.443,1.277,0,1.721
				C-28.361,81.34-27.634,81.281-27.135,80.846L-27.135,80.846z"/>
		</g>
	</g>
</g>
<g>
	<rect x="18.219" y="42.25" fill="none" stroke="#FBFBF3" stroke-width="4" stroke-miterlimit="10" width="64" height="45"/>
	<rect x="82.375" y="51.25" fill="none" stroke="#FBFBF3" stroke-width="4" stroke-miterlimit="10" width="11" height="27"/>
	<rect x="6.625" y="51.25" fill="none" stroke="#FBFBF3" stroke-width="4" stroke-miterlimit="10" width="11" height="27"/>
	<rect x="27.719" y="32.498" fill="none" stroke="#FBFBF3" stroke-width="4" stroke-miterlimit="10" width="45" height="9.752"/>
	<ellipse fill="none" stroke="#FBFBF3" stroke-width="4" stroke-miterlimit="10" cx="33.25" cy="65.082" rx="5.375" ry="9.5"/>
	<ellipse fill="none" stroke="#FBFBF3" stroke-width="4" stroke-miterlimit="10" cx="67.5" cy="65.082" rx="5.375" ry="9.5"/>
	<line fill="none" stroke="#FBFBF3" stroke-width="4" stroke-miterlimit="10" x1="50.219" y1="23.25" x2="50.219" y2="32.498"/>
	<rect x="44.844" y="12.75" fill="none" stroke="#FBFBF3" stroke-width="4" stroke-miterlimit="10" width="10.75" height="10.75"/>
</g>
</svg>
