<?xml version="1.0" encoding="utf-8"?>
<!-- Generator: Adobe Illustrator 16.0.0, SVG Export Plug-In . SVG Version: 6.00 Build 0)  -->
<!DOCTYPE svg PUBLIC "-//W3C//DTD SVG 1.1//EN" "http://www.w3.org/Graphics/SVG/1.1/DTD/svg11.dtd">
<svg version="1.1" id="Layer_1" xmlns="http://www.w3.org/2000/svg" xmlns:xlink="http://www.w3.org/1999/xlink" x="0px" y="0px"
	 width="600px" height="346px" viewBox="0 0 600 346" enable-background="new 0 0 600 346" xml:space="preserve">
<polygon fill="#F9F6E8" points="-407.898,-248.788 -549.949,-2.443 -587.711,-2.443 -528.372,-107.634 -518.336,-91 
	-476.542,-161.834 -527.473,-248.788 -709.085,66.787 -506.793,66.787 -407.898,-109.432 -346.534,-1.316 -385.643,-1.316 
	-417.604,-58.922 -459.914,19.207 -432.62,66.787 -226.282,66.787 "/>
<rect x="34.169" y="73.903" fill="none" stroke="#FFFFFF" stroke-width="1.3635" stroke-miterlimit="10" width="496.831" height="186.108"/>
<g>
	<g>
		<path fill="#F8F6E9" d="M184.045,121.493h5.713l38.948,92.181h-7.011l-12.851-30.38h-44.015l-12.851,30.38h-7.142L184.045,121.493
			z M207.026,177.842l-20.125-48.3l-20.512,48.3H207.026z"/>
	</g>
	<path fill="#F8F6E9" d="M255.911,121.493h-5.712l-26.828,63.07l3.62,8.168l0,0l3.993-9.437h44.012l12.856,30.38h7.01
		L255.911,121.493z M232.542,177.842l20.514-48.3l20.123,48.3H232.542z"/>
	<g>
		<path fill="#F8F6E9" d="M344.558,207.884c-0.187,0.137-0.379,0.262-0.567,0.392v5.481h6.621v-13.729
			C349.106,202.631,347.089,206.044,344.558,207.884z"/>
		<path fill="#F8F6E9" d="M413.709,121.579v81.144l-64.655-81.144h-5.063v50.582c0.114,0.073,0.227,0.157,0.348,0.215
			c3.231,1.563,4.736,4.662,6.273,7.161v-45.494l63.617,79.714h6.103v-92.178H413.709z"/>
	</g>
	<path fill="#F8F6E9" d="M346.34,188.78c-0.068-4.068-0.888-7.472-2.447-10.217c-1.563-2.743-3.766-5.042-6.611-6.899
		c-2.848-1.854-6.289-3.375-10.335-4.561c-4.048-1.187-8.543-2.257-13.495-3.212c-4.776-0.957-8.861-1.879-12.253-2.776
		c-3.392-0.894-6.202-2.013-8.432-3.361c-2.233-1.345-3.883-2.986-4.956-4.912c-1.071-1.933-1.633-4.367-1.683-7.309
		c-0.1-5.797,1.877-10.44,5.93-13.932c4.05-3.489,10.574-5.31,19.579-5.466c8.488-0.144,15.518,1.757,21.086,5.701h-0.002
		l3.271-4.926c-2.649-1.83-5.464-3.284-8.446-4.356c-4.702-1.695-10.041-2.493-16.012-2.388c-4.846,0.083-9.251,0.724-13.211,1.913
		c-3.962,1.195-7.353,2.918-10.171,5.175c-2.815,2.255-5,5-6.544,8.227c-1.55,3.231-2.285,6.922-2.212,11.077
		c0.065,3.811,0.766,6.954,2.108,9.442c1.342,2.488,3.302,4.599,5.886,6.326c2.583,1.732,5.77,3.149,9.552,4.25
		c3.784,1.107,8.154,2.135,13.103,3.089c4.867,0.955,9.123,1.966,12.777,3.027c3.656,1.062,6.685,2.352,9.093,3.869
		c2.404,1.518,4.231,3.325,5.482,5.425c1.246,2.101,1.896,4.666,1.948,7.694c0.104,5.97-2.092,10.468-6.585,13.484
		c-4.494,3.022-10.767,4.602-18.812,4.739c-5.986,0.103-11.484-0.674-16.488-2.326c0,0,0,0,0,0.002l3.392,7.027
		c4.1,0.839,8.413,1.221,12.936,1.143c4.934-0.085,9.403-0.681,13.408-1.789c4.006-1.107,7.443-2.702,10.309-4.786
		c2.861-2.082,5.069-4.652,6.619-7.708C345.669,196.409,346.411,192.847,346.34,188.78z"/>
</g>
</svg>
