<?xml version="1.0" encoding="utf-8"?>
<!-- Generator: Adobe Illustrator 16.0.0, SVG Export Plug-In . SVG Version: 6.00 Build 0)  -->
<!DOCTYPE svg PUBLIC "-//W3C//DTD SVG 1.1//EN" "http://www.w3.org/Graphics/SVG/1.1/DTD/svg11.dtd">
<svg version="1.1" id="Layer_1" xmlns="http://www.w3.org/2000/svg" xmlns:xlink="http://www.w3.org/1999/xlink" x="0px" y="0px"
	 width="400px" height="300px" viewBox="0 0 400 300" enable-background="new 0 0 400 300" xml:space="preserve">
<g id="bk4yXu.tif">
	<g>
		<g>
			<path fill-rule="evenodd" clip-rule="evenodd" fill="#262828" d="M200.543,40.252c50.595,0,101.189,0.027,151.783-0.036
				c6.1-0.008,10.445,2.668,13.412,7.733c1.463,2.5,2.338,5.252,2.338,8.267c-0.025,62.57-0.008,125.141-0.043,187.709
				c-0.002,5.268-2.1,9.708-6.336,12.926c-2.355,1.79-5.156,2.646-8.115,2.881c-0.746,0.059-1.498,0.021-2.244,0.021
				c-100.965,0-201.93-0.009-302.895,0.031c-3.391,0.001-6.498-0.704-9.409-2.352c-3.308-1.869-5.188-4.834-6.306-8.379
				c-0.612-1.942-0.8-3.91-0.8-5.947c0.023-62.12,0.026-124.241-0.005-186.362c-0.001-2.756,0.511-5.348,1.656-7.81
				c1.942-4.178,5.159-6.731,9.672-7.935c2.302-0.614,4.55-0.691,6.854-0.691c50.146-0.004,100.291-0.003,150.438-0.003
				C200.543,40.288,200.543,40.27,200.543,40.252z M68.988,58.607c-0.157,0.428-0.016,0.615,0.152,0.75
				c6.37,5.067,12.737,10.135,19.119,15.187c4.917,3.892,9.87,7.74,14.775,11.646c6.366,5.068,12.687,10.194,19.054,15.26
				c6.194,4.927,12.438,9.792,18.635,14.717c9.062,7.201,18.099,14.436,27.155,21.644c9.407,7.486,18.838,14.943,28.223,22.457
				c0.952,0.762,1.545,0.732,2.486-0.016c5.67-4.506,11.381-8.961,17.108-13.397c6.906-5.351,13.859-10.643,20.76-16
				c8.316-6.456,16.592-12.965,24.902-19.429c7.898-6.143,15.824-12.251,23.729-18.386c7.549-5.859,15.08-11.743,22.633-17.599
				c6.904-5.352,13.836-10.669,20.729-16.036c0.592-0.461,1.73-0.84,1.377-1.774c-0.291-0.767-1.34-0.371-2.045-0.362
				c-8.824,0.104-17.65,0.134-26.475,0.209c-41.746,0.355-83.494,0.019-125.241,0.475c-35.012,0.383-70.028,0.094-105.041,0.495
				C70.312,58.455,69.564,58.309,68.988,58.607z M199.118,244.002c0,0.026,0,0.053,0,0.078c43.998,0,87.994,0,131.99,0.002
				c0.299,0,0.602,0.024,0.896-0.004c0.566-0.055,1.34,0.238,1.59-0.468c0.279-0.787-0.508-1.144-0.977-1.589
				c-0.16-0.152-0.377-0.241-0.559-0.374c-2.104-1.55-4.199-3.115-6.311-4.653c-9.836-7.164-19.674-14.324-29.514-21.481
				c-8.209-5.974-16.418-11.945-24.631-17.915c-8.334-6.057-16.666-12.114-25.006-18.164c-7.311-5.305-14.629-10.598-21.941-15.902
				c-1.613-1.171-1.895-1.172-3.508,0.08c-6.135,4.762-12.225,9.582-18.428,14.251c-2.568,1.933-5.473,2.462-8.623,1.153
				c-1.84-0.765-3.3-2.004-4.813-3.199c-5.039-3.98-10.075-7.965-15.082-11.986c-0.961-0.772-1.728-0.913-2.768-0.1
				c-1.82,1.425-3.767,2.69-5.625,4.07c-6.652,4.936-13.277,9.911-19.94,14.836c-6.484,4.791-13.024,9.507-19.503,14.308
				c-9.717,7.199-19.385,14.461-29.101,21.661c-10.257,7.601-20.549,15.153-30.808,22.753c-0.784,0.581-2.251,1.031-1.786,2.207
				c0.364,0.92,1.754,0.42,2.68,0.42C111.274,244.004,155.196,244.002,199.118,244.002z M351.178,149.185
				c0-27.691,0-55.382-0.002-83.073c0-0.599,0.014-1.199-0.027-1.795c-0.057-0.856-0.607-1.021-1.238-0.65
				c-0.705,0.413-1.324,0.969-1.973,1.474c-6.598,5.142-13.186,10.299-19.793,15.427c-7.375,5.721-14.781,11.404-22.152,17.13
				c-6.666,5.176-13.293,10.404-19.961,15.577c-8.73,6.775-17.492,13.511-26.229,20.279c-6.023,4.665-12.027,9.358-18.039,14.034
				c-1.357,1.054-2.756,2.054-4.08,3.145c-0.957,0.788-0.912,1.109,0.068,1.897c0.348,0.28,0.73,0.519,1.094,0.781
				c4.965,3.582,9.947,7.143,14.891,10.755c8.32,6.079,16.596,12.22,24.928,18.282c6.459,4.701,12.998,9.292,19.459,13.99
				c7.729,5.619,15.396,11.329,23.123,16.95c9.18,6.679,18.387,13.314,27.607,19.934c0.615,0.442,1.168,1.55,2.008,1.031
				c0.715-0.44,0.301-1.527,0.301-2.319C351.18,204.417,351.176,176.802,351.178,149.185z M48.5,148.848c0,27.239,0,54.478,0,81.716
				c0,0.45-0.018,0.9,0.003,1.348c0.07,1.538,0.369,1.678,1.729,0.804c0.439-0.283,0.86-0.595,1.278-0.909
				c2.029-1.521,4.043-3.066,6.085-4.57c7.696-5.671,15.406-11.321,23.1-16.997c7.57-5.586,15.127-11.189,22.687-16.79
				c9.358-6.934,18.702-13.887,28.069-20.809c6.904-5.101,13.837-10.164,20.755-15.247c1.926-1.414,3.854-2.825,5.761-4.265
				c1.207-0.91,1.195-1.189,0.045-2.221c-0.168-0.15-0.339-0.294-0.517-0.434c-6.048-4.751-12.113-9.48-18.141-14.257
				c-7.608-6.031-15.172-12.116-22.778-18.15c-9.01-7.148-18.054-14.254-27.064-21.403c-12.755-10.12-25.484-20.272-38.258-30.37
				c-0.693-0.548-1.333-1.827-2.381-1.229c-0.807,0.461-0.357,1.654-0.357,2.514C48.497,94.669,48.5,121.758,48.5,148.848z"/>
		</g>
	</g>
</g>
</svg>
