<?xml version="1.0" encoding="utf-8"?>
<!-- Generator: Adobe Illustrator 16.0.0, SVG Export Plug-In . SVG Version: 6.00 Build 0)  -->
<!DOCTYPE svg PUBLIC "-//W3C//DTD SVG 1.1//EN" "http://www.w3.org/Graphics/SVG/1.1/DTD/svg11.dtd">
<svg version="1.1" id="Layer_1" xmlns="http://www.w3.org/2000/svg" xmlns:xlink="http://www.w3.org/1999/xlink" x="0px" y="0px"
	 width="41.089px" height="41.089px" viewBox="0 0 41.089 41.089" enable-background="new 0 0 41.089 41.089" xml:space="preserve">
<path fill-rule="evenodd" clip-rule="evenodd" fill="#FBFBF3" d="M-57.622,17.273c6.883,0.002,12.789,4.664,14.258,11.193
	c0.992,4.422,0.082,8.464-2.611,12.12c-1.057,1.436-2.039,2.928-3.057,4.393c-2.277,3.283-4.557,6.568-6.838,9.854
	c-0.174,0.254-0.352,0.504-0.525,0.758c-0.645,0.939-1.477,0.941-2.123,0.01c-1.523-2.197-3.049-4.395-4.574-6.592
	c-1.867-2.691-3.73-5.385-5.607-8.07c-0.705-1.008-1.412-2.012-1.922-3.141c-0.66-1.469-1.082-2.998-1.24-4.603
	c-0.273-2.795,0.191-5.463,1.48-7.955c2.029-3.924,5.209-6.441,9.492-7.551C-59.761,17.396-58.606,17.289-57.622,17.273z
	 M-57.448,25.003c-3.455-0.006-6.289,2.791-6.297,6.217c-0.008,3.521,2.791,6.351,6.285,6.353c3.461,0,6.279-2.816,6.285-6.282
	C-51.169,27.826-53.979,25.009-57.448,25.003z"/>
<g id="ZIEtor.tif_5_">
	<g>
		<g>
			<path fill-rule="evenodd" clip-rule="evenodd" fill="#FBFBF3" d="M1.108,2.634c3.002,1.359,6.014,2.705,9.008,4.084
				c9.58,4.412,19.154,8.836,28.73,13.256c0.34,0.156,0.672,0.334,1.135,0.564c-0.379,0.195-0.621,0.332-0.871,0.449
				C26.713,26.71,14.319,32.435,1.92,38.154c-0.262,0.121-0.541,0.201-0.812,0.301c0-0.064,0-0.129,0-0.193
				c0.141-0.324,0.297-0.643,0.418-0.973c1.75-4.797,3.506-9.592,5.229-14.396c0.225-0.625,0.504-0.924,1.217-0.963
				c5.756-0.311,11.512-0.66,17.268-1.006c1.287-0.078,2.574-0.186,3.861-0.279c-1.359-0.305-2.705-0.406-4.053-0.488
				c-5.723-0.344-11.447-0.691-17.172-1.008c-0.627-0.035-0.9-0.309-1.092-0.859c-0.637-1.832-1.303-3.652-1.973-5.473
				C3.583,9.484,2.342,6.158,1.108,2.828C1.108,2.763,1.108,2.699,1.108,2.634z"/>
		</g>
	</g>
</g>
</svg>
