<?xml version="1.0" encoding="utf-8"?>
<!-- Generator: Adobe Illustrator 21.0.0, SVG Export Plug-In . SVG Version: 6.00 Build 0)  -->
<svg version="1.1" id="Layer_1" xmlns="http://www.w3.org/2000/svg" xmlns:xlink="http://www.w3.org/1999/xlink" x="0px" y="0px"
	 viewBox="0 0 200 200" style="enable-background:new 0 0 200 200;" xml:space="preserve">
<style type="text/css">
	.st0{fill:#FFFFFF;}
</style>
<g>
	<path class="st0" d="M133.2,8c0,5.5,0,10.1,0,14.3c-6.3,3.6-12.3,7-19.1,10.8c9.5,6.7,19.7,11,29,16.8c9.5,5.9,19.3,11.2,28.6,16.6
		c0,26.4,0,52,0,78.1c-21.3,16.1-44.3,30.2-66.6,45.5c-1.4,1-3.3,1.3-4.6,1.9c-24.4-14.2-48.3-28.2-72.2-42.1c0-27.6,0-54.9,0-82.2
		c19.5-11.2,39-22.7,60.2-34c-7.9-4.7-14.2-8.5-20.1-12.1c0-4.3,0-7.6,0-10.9c2.2-1.5,3.7-0.2,5.8,0.7c8.1,3.6,15.3,8.6,24.4,13.3
		c0.9,0,3.4,0,5.2,0C113.6,19.2,123.1,13.8,133.2,8z M53.4,70.9c2.5,1.5,4.7,3,7,4.1c11.3,5.7,21.9,12.7,33.1,18.6
		c4.3,2.3,8.6,4.7,12.9,7.2c9.9,5.7,19.5,11.9,29.4,17.5c7.9,4.5,16.1,8.4,24,13.2c0-19.5,0-38.6,0-57.4
		c-19-10.8-37.6-21.4-57.3-32.6c-0.9,0.3-2.9,0.8-4.9,1.6c-8.2,3.4-15.5,8.3-23,12.9c-6.8,4.1-14,7.6-21.3,11.5
		C53.4,68.4,53.4,69.4,53.4,70.9z M94.7,173.7c0-22,0-43.5,0-65c-5.6-3.2-10.9-6.4-16.4-9.4c-8.2-4.5-16.5-8.6-24.2-14
		c-3.4-2.4-7.8-3.6-12.2-5.6c0,21.6,0,42.5,0,63.3C59.5,153.2,76.9,163.3,94.7,173.7z M106.9,116.2c0,19,0,37.2,0,56.2
		c9.4-2.7,15.7-9.6,23.5-14c8-4.5,15.3-10.3,23.6-16.1C137.9,133.7,123.3,124,106.9,116.2z"/>
</g>
</svg>
