<?xml version="1.0" encoding="utf-8"?>
<!-- Generator: Adobe Illustrator 16.0.0, SVG Export Plug-In . SVG Version: 6.00 Build 0)  -->
<!DOCTYPE svg PUBLIC "-//W3C//DTD SVG 1.1//EN" "http://www.w3.org/Graphics/SVG/1.1/DTD/svg11.dtd">
<svg version="1.1" id="Layer_1" xmlns="http://www.w3.org/2000/svg" xmlns:xlink="http://www.w3.org/1999/xlink" x="0px" y="0px"
	 width="41.089px" height="41.089px" viewBox="0 0 41.089 41.089" enable-background="new 0 0 41.089 41.089" xml:space="preserve">
<path fill-rule="evenodd" clip-rule="evenodd" fill="#FBFBF3" d="M20.378,1.032c6.883,0.002,12.789,4.664,14.258,11.193
	c0.992,4.422,0.082,8.464-2.611,12.121c-1.057,1.436-2.039,2.928-3.057,4.393c-2.277,3.283-4.557,6.568-6.838,9.854
	c-0.174,0.254-0.352,0.504-0.525,0.758c-0.645,0.939-1.477,0.941-2.123,0.01c-1.523-2.197-3.049-4.395-4.574-6.592
	c-1.867-2.691-3.73-5.385-5.607-8.07c-0.705-1.008-1.412-2.012-1.922-3.141c-0.66-1.469-1.082-2.998-1.24-4.603
	c-0.273-2.795,0.191-5.463,1.48-7.955c2.029-3.924,5.209-6.441,9.492-7.551C18.24,1.155,19.394,1.048,20.378,1.032z M20.552,8.763
	c-3.455-0.006-6.289,2.791-6.297,6.217c-0.008,3.521,2.791,6.351,6.285,6.353c3.461,0,6.279-2.816,6.285-6.283
	C26.832,11.585,24.021,8.769,20.552,8.763z"/>
</svg>
